<?xml version="1.0" standalone="no"?>
<!DOCTYPE svg PUBLIC "-//W3C//DTD SVG 20010904//EN"
 "http://www.w3.org/TR/2001/REC-SVG-20010904/DTD/svg10.dtd">
<svg version="1.0" xmlns="http://www.w3.org/2000/svg"
 width="512.000000pt" height="512.000000pt" viewBox="0 0 512.000000 512.000000"
 preserveAspectRatio="xMidYMid meet">

<g transform="translate(0.000000,512.000000) scale(0.100000,-0.100000)"
fill="#000000" stroke="none">
<path d="M847 5105 c-117 -33 -223 -109 -262 -190 -10 -22 -21 -65 -23 -95
l-4 -55 842 -1178 c532 -745 838 -1182 833 -1190 -48 -79 -349 -486 -392 -531
-67 -70 -176 -144 -263 -179 -138 -55 -167 -57 -804 -57 l-587 0 -31 -33 c-38
-41 -89 -143 -107 -217 -33 -135 -9 -312 61 -454 l35 -71 807 -3 c668 -2 809
0 820 11 7 8 186 257 398 555 212 298 387 541 390 541 3 0 178 -243 390 -541
212 -298 391 -547 398 -555 11 -11 152 -13 820 -11 l807 3 35 71 c70 142 94
319 61 454 -18 74 -69 176 -107 217 l-31 33 -587 0 c-637 0 -666 2 -804 57
-87 35 -196 109 -263 179 -43 45 -344 452 -392 531 -5 8 301 445 833 1190
l842 1178 -4 55 c-5 71 -31 124 -88 178 -78 75 -262 145 -295 111 -7 -8 -372
-516 -810 -1129 -438 -613 -801 -1115 -805 -1115 -4 0 -370 506 -812 1125
-665 929 -809 1125 -829 1127 -13 1 -46 -4 -72 -12z m843 -1186 c432 -606 791
-1111 799 -1123 13 -22 8 -31 -84 -160 -53 -75 -100 -138 -104 -141 -10 -6
-1645 2282 -1649 2309 -7 39 21 97 66 136 44 39 129 79 167 79 15 0 211 -268
805 -1100z m2613 1081 c97 -36 168 -117 166 -189 0 -18 -426 -621 -1377 -1951
l-1377 -1925 -330 0 -330 0 -3 303 -2 302 159 0 c179 0 270 14 395 62 101 39
240 133 308 207 29 33 560 768 1178 1635 726 1016 1131 1575 1142 1575 10 1
41 -8 71 -19z m-1280 -2946 c168 -236 215 -288 327 -363 165 -110 314 -151
551 -151 l149 0 0 -305 0 -305 -322 2 -323 3 -393 549 c-217 304 -390 556
-388 563 3 8 49 74 102 148 l96 135 32 -42 c18 -24 94 -129 169 -234z m-2373
-819 l0 -305 -224 0 -223 0 -26 58 c-77 179 -71 371 17 510 l26 42 215 0 215
0 0 -305z m310 0 l0 -306 -107 3 -108 3 -3 303 -2 302 110 0 110 0 0 -305z
m3400 0 l0 -306 -107 3 -108 3 -3 303 -2 302 110 0 110 0 0 -305z m566 263
c88 -139 94 -331 17 -510 l-26 -58 -231 2 -231 3 -3 290 c-1 159 0 295 3 302
3 10 57 13 225 13 l220 0 26 -42z"/>
<path d="M757 4833 c-23 -23 10 -78 269 -441 153 -213 285 -395 295 -406 12
-13 25 -17 42 -12 60 15 53 27 -254 456 -260 364 -295 410 -319 410 -15 0 -30
-3 -33 -7z"/>
<path d="M4037 4468 c-324 -453 -309 -431 -305 -460 2 -18 10 -24 34 -26 30
-3 38 7 319 400 158 222 290 410 292 419 6 20 -22 49 -47 49 -13 0 -100 -113
-293 -382z"/>
<path d="M1825 701 c-118 -87 -189 -252 -165 -382 15 -79 63 -169 122 -229 99
-99 23 -90 774 -90 l661 0 39 28 c59 43 126 122 159 188 27 54 30 68 30 159 0
90 -3 106 -29 159 -16 32 -57 89 -91 125 l-63 66 -699 3 -699 2 -39 -29z
m1441 -107 c24 -25 53 -67 66 -92 26 -56 35 -154 18 -206 l-12 -36 -657 0
c-498 0 -660 -3 -669 -12 -16 -16 -15 -55 1 -65 6 -4 293 -10 637 -13 l625 -5
-40 -37 -40 -38 -642 0 -643 0 -55 55 c-79 79 -109 142 -109 230 0 82 25 140
94 218 l42 47 671 0 671 0 42 -46z"/>
</g>
</svg>
